<svg xmlns="http://www.w3.org/2000/svg" width="26" height="208"><g><title>background</title><rect id="canvas_background" width="28" height="210" x="-1" y="-1" fill="none"/></g><g><title>Layer 1</title><circle id="svg_1" cx="13" cy="117" r="11" fill="#fff" fill-opacity=".78"/><circle id="svg_2" cx="13" cy="143" r="11" fill="#fff" fill-opacity=".78" opacity=".5"/><circle id="svg_3" cx="13" cy="169" r="7" fill="none" stroke="#fff" stroke-width="2"/><circle id="svg_4" cx="13" cy="195" r="7" fill="none" stroke="#fff" stroke-width="2"/><circle id="svg_5" cx="13" cy="195" r="2.5" fill="none" stroke="#fff"/><path id="svg_6" fill="#fff" stroke-width="0" d="m5,83l0,6l2,0l0,-4l4,0l0,-2l-6,0zm10,0l0,2l4,0l0,4l2,0l0,-6l-6,0zm-5,5l0,6l6,0l0,-6l-6,0zm-5,5l0,6l6,0l0,-2l-4,0l0,-4l-2,0zm14,0l0,4l-4,0l0,2l6,0l0,-6l-2,0z"/><path id="svg_7" stroke="null" d="m13,110a7,7 0 0 0 -7,7a7,7 0 0 0 7,7a7,7 0 0 0 7,-7a7,7 0 0 0 -7,-7zm-1,3l2,0l0,2l-2,0l0,-2zm0,3l2,0l0,5l-2,0l0,-5z"/><path id="svg_8" fill="#fff" d="m5,57l0,6l2,0l0,-4l4,0l0,-2l-6,0zm10,0l0,2l4,0l0,4l2,0l0,-6l-6,0zm-10,10l0,6l6,0l0,-2l-4,0l0,-4l-2,0zm14,0l0,4l-4,0l0,2l6,0l0,-6l-2,0z"/><path id="svg_9" fill="#fff" d="m17,38l0,2l-8,0l0,-2l8,0z"/><path id="svg_10" fill="#fff" d="m12,9l0,3l-3,0l0,2l3,0l0,3l2,0l0,-3l3,0l0,-2l-3,0l0,-3l-2,0z"/><path id="svg_11" fill="#fff" d="m13,136l-6.125,6.125l4.375,0l0,7.875l3.5,0l0,-7.875l4.375,0l-6.125,-6.125z"/><path id="svg_12" fill="#fff" d="m10.428,173.33l0,-5.77l5,-2.89l0,5.77l-5,2.89zm1,-1.73l3,-1.73l-3.001,-1.74l0.001,3.47z"/></g></svg>